<svg xmlns="http://www.w3.org/2000/svg" xmlns:xlink="http://www.w3.org/1999/xlink" width="40" zoomAndPan="magnify" viewBox="0 0 30 30.000001" height="40" preserveAspectRatio="xMidYMid meet" version="1.2"><defs><clipPath id="d71a7ceea6"><path d="M 0.484375 2.214844 L 29.515625 2.214844 L 29.515625 26.890625 L 0.484375 26.890625 Z M 0.484375 2.214844 "/></clipPath><clipPath id="205406f568"><path d="M 22.609375 8.308594 L 26.960938 8.308594 L 26.960938 11.941406 L 22.609375 11.941406 Z M 22.609375 8.308594 "/></clipPath></defs><g id="5ec0003278"><g clip-rule="nonzero" clip-path="url(#d71a7ceea6)"><path style=" stroke:none;fill-rule:nonzero;fill:#000000;fill-opacity:1;" d="M 17.636719 9.691406 L 0.492188 26.890625 L 0.492188 19.429688 L 17.636719 2.214844 Z M 12.363281 19.402344 L 12.363281 26.890625 L 24.230469 14.996094 L 24.230469 26.890625 L 29.507812 21.597656 L 29.507812 2.214844 Z M 12.363281 19.402344 "/></g><g clip-rule="nonzero" clip-path="url(#205406f568)"><path style=" stroke:none;fill-rule:nonzero;fill:#000000;fill-opacity:1;" d="M 25.179688 9.410156 L 22.609375 11.941406 L 22.609375 10.84375 L 25.179688 8.308594 Z M 24.390625 10.839844 L 24.390625 11.941406 L 26.167969 10.191406 L 26.167969 11.941406 L 26.960938 11.160156 L 26.960938 8.308594 Z M 24.390625 10.839844 "/></g></g></svg>